<svg width="22" height="24" viewBox="0 0 22 24" fill="none" xmlns="http://www.w3.org/2000/svg">
<path fill-rule="evenodd" clip-rule="evenodd" d="M10.5159 1.79951C6.76541 1.79951 3.52949 5.31066 3.52949 9.89951C3.52949 10.6866 3.77321 11.6578 4.22161 12.7553C4.66578 13.8424 5.28717 14.9971 5.98695 16.135C7.38659 18.4108 9.0582 20.5526 10.1272 21.8517C10.336 22.1055 10.6958 22.1055 10.9046 21.8517C11.9736 20.5526 13.6452 18.4108 15.0449 16.135C15.7447 14.9971 16.3661 13.8424 16.8102 12.7553C17.2586 11.6578 17.5023 10.6866 17.5023 9.89951C17.5023 5.31066 14.2664 1.79951 10.5159 1.79951ZM1.72949 9.89951C1.72949 4.54724 5.55532 -0.000488281 10.5159 -0.000488281C15.4765 -0.000488281 19.3023 4.54724 19.3023 9.89951C19.3023 11.019 18.9659 12.2383 18.4765 13.4361C17.9829 14.6443 17.3089 15.8898 16.5781 17.0779C15.1168 19.4542 13.387 21.6678 12.2945 22.9954C11.3657 24.1242 9.66617 24.1242 8.7373 22.9954C7.64485 21.6678 5.91508 19.4542 4.4537 17.0779C3.72298 15.8898 3.04894 14.6443 2.55532 13.4361C2.06594 12.2383 1.72949 11.019 1.72949 9.89951ZM10.516 6.29951C9.30624 6.29951 8.12999 7.46015 8.12999 9.14951C8.12999 10.8389 9.30624 11.9995 10.516 11.9995C11.7258 11.9995 12.902 10.8389 12.902 9.14951C12.902 7.46015 11.7258 6.29951 10.516 6.29951ZM6.32999 9.14951C6.32999 6.69673 8.09614 4.49951 10.516 4.49951C12.9359 4.49951 14.702 6.69673 14.702 9.14951C14.702 11.6023 12.9359 13.7995 10.516 13.7995C8.09614 13.7995 6.32999 11.6023 6.32999 9.14951Z" fill="#080696"/>
<ellipse cx="10.5155" cy="9.14941" rx="3.28601" ry="3.75" stroke="#080696" stroke-width="1.5"/>
</svg>
